<svg xmlns="http://www.w3.org/2000/svg" viewBox="0 0 512 512" width="512" height="512">
  <!-- Background circle -->
  <circle cx="256" cy="256" r="256" fill="#4F8EF7" />
  
  <!-- Banana icon - stylized -->
  <path d="M376 176c-23-23-53.8-25.6-63.9-25.6-7.2 0-11.6 0.9-11.6 0.9s42.5 13.1 48 64c5.5 50.8-38.4 102.6-38.4 102.6S359 295.5 364.5 246c5.5-49.5-43.5-25-43.5-25S344 109 256 101c-48-4-96 8-96 8s-32-32-64-8 16 64 16 64-48-16-48 48 80 80 80 80 122 150 232-59z" fill="#F7DF1E" />
  
  <!-- Apple embellishment -->
  <circle cx="160" cy="310" r="38" fill="#E05D44" />
  <path d="M160 270c-1.1 0-2 0.9-2 2v8c0 1.1 0.9 2 2 2s2-0.9 2-2v-8c0-1.1-0.9-2-2-2z" fill="#009900" />
  
  <!-- Orange embellishment -->
  <circle cx="320" cy="350" r="30" fill="#FF9A00" />
</svg>